HIERARCHY
ROOT hip
{
	OFFSET 0.000000 0.000000 0.000000 
	CHANNELS 6 Xposition Yposition Zposition Xrotation Zrotation Yrotation
	JOINT abdomen
	{
		OFFSET 0.000000 3.402643 0.000000 
		CHANNELS 3 Xrotation Zrotation Yrotation
		JOINT chest
		{
			OFFSET 0.000000 8.438565 -0.680529 
			CHANNELS 3 Xrotation Zrotation Yrotation
			JOINT neck
			{
				OFFSET 0.000000 10.207942 -0.272212 
				CHANNELS 3 Xrotation Zrotation Yrotation
				JOINT head
				{
					OFFSET 0.000000 3.130431 0.000000 
					CHANNELS 3 Xrotation Zrotation Yrotation
					End Site
					{
						OFFSET 0.000000 3.130435 0.000000 
					}
				}
			}
			JOINT lCollar
			{
				OFFSET 3.470700 6.669187 -0.816635 
				CHANNELS 3 Yrotation Zrotation Xrotation
				JOINT lShldr
				{
					OFFSET 3.198488 0.000000 0.000000 
					CHANNELS 3 Zrotation Yrotation Xrotation
					JOINT lForeArm
					{
						OFFSET 10.139888 0.000000 0.000000 
						CHANNELS 3 Yrotation Zrotation Xrotation
						JOINT lHand
						{
							OFFSET 8.370511 0.000000 0.000000 
							CHANNELS 3 Zrotation Yrotation Xrotation
							End Site
							{
								OFFSET 4.083176 0.000000 0.000000 
							}
						}
					}
				}
			}
			JOINT rCollar
			{
				OFFSET -3.470700 6.669187 -0.816635 
				CHANNELS 3 Yrotation Zrotation Xrotation
				JOINT rShldr
				{
					OFFSET -3.198488 0.000000 0.000000 
					CHANNELS 3 Zrotation Yrotation Xrotation
					JOINT rForeArm
					{
						OFFSET -10.139888 0.000000 0.000000 
						CHANNELS 3 Yrotation Zrotation Xrotation
						JOINT rHand
						{
							OFFSET -8.370511 0.000000 0.000000 
							CHANNELS 3 Zrotation Yrotation Xrotation
							End Site
							{
								OFFSET -4.083176 0.000000 0.000000 
							}
						}
					}
				}
			}
		}
	}
	JOINT lThigh
	{
		OFFSET 5.308129 -1.633274 1.361059 
		CHANNELS 3 Xrotation Zrotation Yrotation
		JOINT lShin
		{
			OFFSET -2.041588 -20.007561 0.000000 
			CHANNELS 3 Xrotation Zrotation Yrotation
			JOINT lFoot
			{
				OFFSET 0.000000 -19.190928 -1.224953 
				CHANNELS 3 Xrotation Yrotation Zrotation
				End Site
				{
					OFFSET 0.000000 -2.449906 4.627600 
				}
			}
		}
	}
	JOINT rThigh
	{
		OFFSET -5.308129 -1.633274 1.361059 
		CHANNELS 3 Xrotation Zrotation Yrotation
		JOINT rShin
		{
			OFFSET 2.041588 -20.007561 0.000000 
			CHANNELS 3 Xrotation Zrotation Yrotation
			JOINT rFoot
			{
				OFFSET 0.000000 -19.190928 -1.224953 
				CHANNELS 3 Xrotation Yrotation Zrotation
				End Site
				{
					OFFSET 0.000000 -2.449906 4.627600 
				}
			}
		}
	}
}
MOTION
Frames: 16
Frame Time: 0.016667
0.114754 53.178402 -3.310812 -10.290688 -0.998104 7.120096 30.597160 1.078840 1.127810 -1.433008 2.489967 -1.279777 -14.032688 -2.071007 0.411978 7.627969 0.392896 -11.103720 -3.119372 -9.881802 -0.512637 -57.076298 0.448443 -2.509681 -26.978212 -5.000000 31.328152 -30.934265 -8.196457 13.329853 1.702090 7.053338 -0.374634 40.534958 6.004678 1.888039 86.141106 5.000000 2.047320 18.621807 -17.219065 -0.345441 14.994550 21.283770 7.533844 2.213878 -7.497862 -0.649168 -1.571265 0.454171 -10.380156 20.599287 -6.015572 -19.999611 1.556768 2.176298 0.069166 -3.800891 -5.427647 9.081518 
0.110927 53.183399 -3.348187 -10.281456 -1.183737 6.505136 30.627350 1.186005 1.099056 -1.435587 2.519228 -1.368046 -14.120786 -2.050233 0.418709 7.588835 0.374846 -10.195478 -3.139349 -9.930563 -0.515153 -57.121853 0.379468 -2.460226 -27.045322 -5.000000 31.083422 -30.754333 -8.179282 13.348718 1.664137 7.219135 -0.383219 40.830971 5.440965 1.603612 83.692627 5.000000 3.446980 19.376120 -16.105383 -1.277640 15.218671 21.312807 8.099510 2.231571 -7.492593 -0.651225 -1.620574 0.582253 -10.373408 20.369976 -6.074572 -19.507164 1.579802 2.195744 0.080027 -3.666097 -5.277348 9.040506 
0.106158 53.188396 -3.384026 -10.286696 -1.350162 5.929305 30.667191 1.292768 1.070223 -1.447981 2.548487 -1.446122 -14.198700 -2.021267 0.414331 7.558450 0.356522 -9.355653 -3.149654 -9.989078 -0.518171 -57.187195 0.312690 -2.397208 -27.121469 -5.000000 30.786112 -30.532806 -8.167961 13.347882 1.626277 7.394686 -0.392304 41.216465 4.935898 1.358131 81.012283 5.000000 5.074460 19.938574 -15.100589 -1.920260 15.445783 21.315285 8.629056 2.242939 -7.468770 -0.652162 -1.628836 0.684972 -10.396261 20.175701 -6.123173 -19.021864 1.612595 2.220425 0.062517 -3.606878 -5.095693 9.010809 
0.099966 53.193398 -3.417567 -10.307994 -1.507000 5.382589 30.726894 1.390777 1.058949 -1.469146 2.567993 -1.485154 -14.247319 -1.992300 0.409953 7.528342 0.328278 -8.623185 -3.160053 -10.057342 -0.521692 -57.261642 0.232192 -2.331179 -27.206068 -5.000000 30.439503 -30.262457 -8.142187 13.305134 1.598281 7.579984 -0.401891 41.731216 4.547237 1.207513 77.980156 5.000000 6.983418 20.268599 -14.256874 -2.171246 15.669919 21.295830 9.094461 2.251163 -7.425229 -0.623904 -1.660372 0.836072 -10.369196 20.000059 -6.152069 -18.571863 1.659211 2.222573 0.055128 -3.526717 -4.929911 8.963942 
0.093773 53.198399 -3.451105 -10.325768 -1.654226 4.845673 30.786160 1.483921 1.035525 -1.490332 2.587500 -1.524185 -14.305707 -1.963334 0.405575 7.497502 0.299868 -7.890722 -3.170456 -10.125608 -0.525212 -57.336624 0.160092 -2.259676 -27.280249 -5.000000 30.092707 -29.992092 -8.116205 13.264300 1.559152 7.755800 -0.401296 42.245872 4.154433 1.042823 74.862534 5.000000 9.048265 20.590406 -13.416550 -2.425361 15.914832 21.296141 9.596539 2.250942 -7.415014 -0.614148 -1.682614 0.988617 -10.351867 19.830002 -6.191247 -18.143621 1.676292 2.209713 0.056248 -3.438726 -4.783110 8.930451 
0.084058 53.199642 -3.478266 -10.361858 -1.801422 4.357610 30.826588 1.562401 1.047176 -1.481179 2.597256 -1.533940 -14.334340 -1.966258 0.386275 7.497979 0.319636 -7.324324 -3.200487 -10.203625 -0.529234 -57.450615 0.088929 -2.209742 -27.337984 -5.000000 29.743612 -29.725273 -8.112000 13.180637 1.580087 7.950848 -0.411382 42.922256 3.873518 0.907248 71.362648 5.000000 11.411692 20.772732 -12.668553 -2.105870 16.130772 21.317751 10.009488 2.278864 -7.396218 -0.617158 -1.722853 1.089468 -10.386725 19.684561 -6.220658 -17.712992 1.715948 2.240676 0.077932 -3.383463 -4.685194 8.865926 
0.074340 53.200890 -3.505428 -10.394791 -1.938933 3.869266 30.867237 1.637439 1.067984 -1.472650 2.616768 -1.553449 -14.353540 -1.967720 0.376625 7.489076 0.339422 -6.757926 -3.220666 -10.271891 -0.532752 -57.564621 0.017970 -2.159551 -27.385086 -5.000000 29.397343 -29.458431 -8.107219 13.098652 1.591218 8.136142 -0.420960 43.590122 3.596845 0.777727 67.778122 5.000000 13.921083 20.959993 -11.923035 -1.780880 16.350800 21.322962 10.431346 2.309644 -7.376319 -0.610332 -1.780857 1.198779 -10.397577 19.556395 -6.259458 -17.294685 1.743117 2.256962 0.060005 -3.307296 -4.526454 8.858195 
0.063204 53.202885 -3.530289 -10.436922 -2.076355 3.429727 30.918060 1.717968 1.101648 -1.483038 2.626524 -1.563203 -14.363054 -1.929099 0.370786 7.494158 0.320344 -6.259832 -3.240942 -10.349908 -0.536772 -57.689117 -0.039695 -2.112131 -27.415678 -5.000000 29.073353 -29.241556 -8.112537 13.067148 1.641669 8.350696 -0.433463 44.296162 3.399590 0.692014 64.086166 5.000000 16.546061 21.079762 -11.177957 -1.312289 16.557495 21.324999 10.818823 2.328704 -7.360049 -0.612308 -1.825346 1.341506 -10.405502 19.440271 -6.269645 -16.938898 1.778007 2.279110 0.081657 -3.262755 -4.491084 8.788218 
0.051124 53.205387 -3.553616 -10.487333 -2.203969 3.019475 30.969393 1.791404 1.153319 -1.493880 2.636272 -1.602243 -14.343468 -1.869703 0.371679 7.481142 0.281753 -5.800807 -3.251648 -10.447430 -0.541796 -57.823780 -0.087146 -2.081002 -27.426670 -5.000000 28.754759 -29.052261 -8.129224 13.068850 1.692241 8.574998 -0.445083 45.032825 3.232156 0.645324 60.316711 5.000000 19.263493 21.161480 -10.443942 -0.732193 16.782372 21.363464 11.177385 2.338693 -7.356872 -0.613290 -1.870126 1.428459 -10.403597 19.344540 -6.279974 -16.563053 1.827679 2.289662 0.084478 -3.184102 -4.399918 8.741755 
0.039071 53.207130 -3.576195 -10.536323 -2.331548 2.618992 31.029806 1.850350 1.188151 -1.504277 2.646027 -1.622213 -14.314102 -1.810308 0.372572 7.486871 0.243065 -5.380894 -3.252502 -10.535200 -0.548102 -57.948505 -0.139260 -2.041413 -27.430374 -5.000000 28.455336 -28.886171 -8.158544 13.083611 1.762392 8.799301 -0.456695 45.778435 3.086971 0.601745 56.562435 5.000000 22.011406 21.223347 -9.704074 -0.195411 16.970871 21.365786 11.512286 2.376380 -7.324305 -0.636720 -1.894020 1.599668 -10.431129 19.243555 -6.279323 -16.234735 1.865713 2.308847 0.115986 -3.133352 -4.321619 8.732635 
0.027125 53.205879 -3.595776 -10.595007 -2.449255 2.267310 31.061232 1.921743 1.219072 -1.494241 2.655800 -1.612458 -14.264788 -1.782803 0.358542 7.487377 0.252917 -5.058631 -3.272799 -10.613216 -0.552131 -58.083370 -0.181261 -2.018157 -27.431644 -5.000000 28.235823 -28.786682 -8.172888 13.150775 1.832590 9.023603 -0.468301 46.562767 3.003695 0.607325 52.929611 5.000000 24.647377 21.201511 -8.932597 0.194279 17.150356 21.400742 11.796437 2.416530 -7.321228 -0.611421 -1.916574 1.694976 -10.414742 19.171577 -6.258660 -15.911347 1.909432 2.285771 0.098845 -3.124302 -4.311348 8.694728 
0.015177 53.204636 -3.615356 -10.662780 -2.576671 1.925395 31.102114 1.984369 1.245696 -1.483746 2.665580 -1.592493 -14.206013 -1.753837 0.354163 7.487994 0.262771 -4.736368 -3.283433 -10.700987 -0.556664 -58.218594 -0.219973 -1.981274 -27.423105 -5.000000 28.021885 -28.687283 -8.187502 13.217923 1.902920 9.257660 -0.480404 47.346928 2.914274 0.603028 49.359562 5.000000 27.260572 21.196156 -8.152008 0.585909 17.342485 21.425207 12.085919 2.464307 -7.305340 -0.635852 -1.963167 1.853673 -10.426350 19.094311 -6.248875 -15.560570 1.938873 2.286781 0.081017 -3.081765 -4.232436 8.642544 
0.004372 53.204384 -3.630976 -10.720284 -2.674710 1.622517 31.143066 2.033972 1.278388 -1.464214 2.665580 -1.572962 -14.166772 -1.724870 0.349783 7.509453 0.253130 -4.482465 -3.313606 -10.788756 -0.561195 -58.354000 -0.246420 -1.982623 -27.395159 -5.000000 27.896517 -28.651421 -8.245892 13.332645 1.973218 9.481960 -0.493603 48.139530 2.878930 0.627758 46.081642 5.000000 29.596272 21.117605 -7.473793 0.581084 17.531864 21.440182 12.326808 2.484878 -7.308671 -0.637823 -2.005304 1.985368 -10.406540 19.052975 -6.258593 -15.284282 2.001370 2.310534 0.074706 -3.052308 -4.143974 8.636664 
-0.006148 53.204384 -3.645607 -10.786990 -2.772692 1.329404 31.165224 2.086059 1.332467 -1.444860 2.675344 -1.563195 -14.127476 -1.686248 0.343944 7.550275 0.243470 -4.248050 -3.333922 -10.866772 -0.565221 -58.479649 -0.272537 -1.983902 -27.367682 -5.000000 27.796057 -28.628759 -8.306010 13.462924 2.033886 9.716015 -0.505729 48.941124 2.857102 0.653142 42.934067 5.000000 31.813536 21.024759 -6.821868 0.482361 17.698360 21.459946 12.533796 2.505432 -7.291131 -0.610479 -2.054832 2.086552 -10.430355 19.032370 -6.269579 -15.037345 2.037538 2.343961 0.067156 -3.025883 -4.030595 8.598846 
-0.016634 53.203884 -3.659237 -10.844704 -2.860825 1.075317 31.196411 2.136753 1.365244 -1.425048 2.685117 -1.543673 -14.068485 -1.668399 0.331373 7.579755 0.253274 -4.042974 -3.364010 -10.944789 -0.569246 -58.595886 -0.288192 -2.001822 -27.318005 -5.000000 27.767540 -28.616039 -8.363995 13.594512 2.104373 9.950068 -0.517846 49.714329 2.840602 0.697797 40.058357 5.000000 33.784054 20.897572 -6.235390 0.254495 17.848543 21.492170 12.720656 2.543085 -7.278144 -0.633918 -2.081238 2.161872 -10.463863 18.993015 -6.249938 -14.813617 2.075777 2.336197 0.079188 -3.013019 -3.994630 8.592271 
-0.027063 53.202633 -3.671367 -10.903647 -2.948887 0.860247 31.207216 2.185785 1.375430 -1.405405 2.704653 -1.533915 -13.970717 -1.649087 0.328453 7.597895 0.282545 -3.906251 -3.403970 -11.032560 -0.573774 -58.703079 -0.283384 -2.053166 -27.250654 -5.000000 27.852993 -28.617050 -8.405746 13.752879 2.174913 10.184121 -0.529955 50.448566 2.836306 0.755304 37.515789 5.000000 35.411148 20.729528 -5.780750 -0.178646 17.997547 21.514071 12.845154 2.565919 -7.290879 -0.645615 -2.092237 2.350204 -10.452345 18.964163 -6.231167 -14.609950 2.137245 2.346414 0.092430 -3.014025 -3.987703 8.574055 
